<svg width="18" height="16" viewBox="0 0 18 16" fill="none" xmlns="http://www.w3.org/2000/svg">
<path d="M7.29688 15.7133C7.69028 16.1009 8.32343 16.0962 8.71105 15.7028C9.09867 15.3094 9.09398 14.6762 8.70058 14.2886L3.33022 8.99721H17.0014C17.5537 8.99721 18.0014 8.5495 18.0014 7.99721C18.0014 7.44493 17.5537 6.99721 17.0014 6.99721H3.33683L8.70058 1.71232C9.09398 1.3247 9.09867 0.691555 8.71105 0.298149C8.32343 -0.0952566 7.69028 -0.0999449 7.29688 0.287676L0.372686 7.11006C-0.124228 7.59967 -0.124229 8.40126 0.372686 8.89087L7.29688 15.7133Z" fill="#1D1D1D"/>
<path d="M7.29688 15.7133C7.69028 16.1009 8.32343 16.0962 8.71105 15.7028C9.09867 15.3094 9.09398 14.6762 8.70058 14.2886L3.33022 8.99721H17.0014C17.5537 8.99721 18.0014 8.5495 18.0014 7.99721C18.0014 7.44493 17.5537 6.99721 17.0014 6.99721H3.33683L8.70058 1.71232C9.09398 1.3247 9.09867 0.691555 8.71105 0.298149C8.32343 -0.0952566 7.69028 -0.0999449 7.29688 0.287676L0.372686 7.11006C-0.124228 7.59967 -0.124229 8.40126 0.372686 8.89087L7.29688 15.7133Z" fill="black" fill-opacity="0.2"/>
<path d="M7.29688 15.7133C7.69028 16.1009 8.32343 16.0962 8.71105 15.7028C9.09867 15.3094 9.09398 14.6762 8.70058 14.2886L3.33022 8.99721H17.0014C17.5537 8.99721 18.0014 8.5495 18.0014 7.99721C18.0014 7.44493 17.5537 6.99721 17.0014 6.99721H3.33683L8.70058 1.71232C9.09398 1.3247 9.09867 0.691555 8.71105 0.298149C8.32343 -0.0952566 7.69028 -0.0999449 7.29688 0.287676L0.372686 7.11006C-0.124228 7.59967 -0.124229 8.40126 0.372686 8.89087L7.29688 15.7133Z" fill="black" fill-opacity="0.2"/>
</svg>
