<svg width="20" height="15" viewBox="0 0 20 15" fill="none" xmlns="http://www.w3.org/2000/svg">
<path d="M0.752812 12.9968H19.2528C19.667 12.9968 20.0028 13.3325 20.0028 13.7468C20.0028 14.1265 19.7207 14.4403 19.3546 14.4899L19.2528 14.4968H0.752812C0.338599 14.4968 0.00281239 14.161 0.00281239 13.7468C0.00281239 13.3671 0.284966 13.0533 0.651042 13.0036L0.752812 12.9968H19.2528H0.752812ZM0.752812 6.49977H19.2528C19.667 6.49977 20.0028 6.83555 20.0028 7.24977C20.0028 7.62946 19.7207 7.94326 19.3546 7.99292L19.2528 7.99977H0.752812C0.338599 7.99977 0.00281239 7.66398 0.00281239 7.24977C0.00281239 6.87007 0.284966 6.55628 0.651042 6.50661L0.752812 6.49977H19.2528H0.752812ZM0.751953 0H19.252C19.6662 0 20.002 0.335786 20.002 0.75C20.002 1.1297 19.7198 1.44349 19.3537 1.49315L19.252 1.5H0.751953C0.33774 1.5 0.00195312 1.16421 0.00195312 0.75C0.00195312 0.370304 0.284107 0.0565088 0.650183 0.00684643L0.751953 0H19.252H0.751953Z" fill="#1D1D1D"/>
<path d="M0.752812 12.9968H19.2528C19.667 12.9968 20.0028 13.3325 20.0028 13.7468C20.0028 14.1265 19.7207 14.4403 19.3546 14.4899L19.2528 14.4968H0.752812C0.338599 14.4968 0.00281239 14.161 0.00281239 13.7468C0.00281239 13.3671 0.284966 13.0533 0.651042 13.0036L0.752812 12.9968H19.2528H0.752812ZM0.752812 6.49977H19.2528C19.667 6.49977 20.0028 6.83555 20.0028 7.24977C20.0028 7.62946 19.7207 7.94326 19.3546 7.99292L19.2528 7.99977H0.752812C0.338599 7.99977 0.00281239 7.66398 0.00281239 7.24977C0.00281239 6.87007 0.284966 6.55628 0.651042 6.50661L0.752812 6.49977H19.2528H0.752812ZM0.751953 0H19.252C19.6662 0 20.002 0.335786 20.002 0.75C20.002 1.1297 19.7198 1.44349 19.3537 1.49315L19.252 1.5H0.751953C0.33774 1.5 0.00195312 1.16421 0.00195312 0.75C0.00195312 0.370304 0.284107 0.0565088 0.650183 0.00684643L0.751953 0H19.252H0.751953Z" fill="black" fill-opacity="0.2"/>
<path d="M0.752812 12.9968H19.2528C19.667 12.9968 20.0028 13.3325 20.0028 13.7468C20.0028 14.1265 19.7207 14.4403 19.3546 14.4899L19.2528 14.4968H0.752812C0.338599 14.4968 0.00281239 14.161 0.00281239 13.7468C0.00281239 13.3671 0.284966 13.0533 0.651042 13.0036L0.752812 12.9968H19.2528H0.752812ZM0.752812 6.49977H19.2528C19.667 6.49977 20.0028 6.83555 20.0028 7.24977C20.0028 7.62946 19.7207 7.94326 19.3546 7.99292L19.2528 7.99977H0.752812C0.338599 7.99977 0.00281239 7.66398 0.00281239 7.24977C0.00281239 6.87007 0.284966 6.55628 0.651042 6.50661L0.752812 6.49977H19.2528H0.752812ZM0.751953 0H19.252C19.6662 0 20.002 0.335786 20.002 0.75C20.002 1.1297 19.7198 1.44349 19.3537 1.49315L19.252 1.5H0.751953C0.33774 1.5 0.00195312 1.16421 0.00195312 0.75C0.00195312 0.370304 0.284107 0.0565088 0.650183 0.00684643L0.751953 0H19.252H0.751953Z" fill="black" fill-opacity="0.2"/>
</svg>
