<svg width="21" height="18" viewBox="0 0 21 18" fill="none" xmlns="http://www.w3.org/2000/svg">
<path d="M1 2.75C1 1.23122 2.23122 0 3.75 0H18.25C19.7688 0 21 1.23122 21 2.75V13.25C21 14.7688 19.7688 16 18.25 16H11.4749L9.42531 13.9504C9.79312 13.2126 10 12.3805 10 11.5H14.25C14.6642 11.5 15 11.1642 15 10.75C15 10.3358 14.6642 10 14.25 10H9.79297C9.64079 9.46195 9.40877 8.95741 9.11053 8.5H16.25C16.6642 8.5 17 8.16421 17 7.75C17 7.33579 16.6642 7 16.25 7H7.66308C6.76841 6.36997 5.67741 6 4.5 6C3.17037 6 1.95094 6.47182 1 7.25716V2.75ZM5.75 4C5.33579 4 5 4.33579 5 4.75C5 5.16421 5.33579 5.5 5.75 5.5H12.25C12.6642 5.5 13 5.16421 13 4.75C13 4.33579 12.6642 4 12.25 4H5.75ZM4.5 16C5.47187 16 6.37179 15.6919 7.1074 15.1681L9.71967 17.7803C10.0126 18.0732 10.4874 18.0732 10.7803 17.7803C11.0732 17.4874 11.0732 17.0126 10.7803 16.7197L8.16806 14.1074C8.69191 13.3718 9 12.4719 9 11.5C9 9.01472 6.98528 7 4.5 7C2.01472 7 0 9.01472 0 11.5C0 13.9853 2.01472 16 4.5 16ZM4.5 14.5C2.84315 14.5 1.5 13.1569 1.5 11.5C1.5 9.84315 2.84315 8.5 4.5 8.5C6.15685 8.5 7.5 9.84315 7.5 11.5C7.5 13.1569 6.15685 14.5 4.5 14.5Z" fill="#036666"/>
</svg>
